<svg width="130" height="96" viewBox="0 0 130 96" fill="none" xmlns="http://www.w3.org/2000/svg">
<path d="M113.597 1.28941L2.68325 21.9594C1.58152 22.1647 0.854973 23.224 1.06036 24.3254L13.8904 93.1251C14.0958 94.2265 15.1554 94.9529 16.2571 94.7475L127.171 74.0775C128.273 73.8722 128.999 72.813 128.794 71.7116L115.964 2.91184C115.759 1.81048 114.699 1.08409 113.597 1.28941Z" fill="#96BDF4"/>
<path d="M2.58447 50.5637L120.73 28.5426" stroke="#140553" stroke-miterlimit="10"/>
<path d="M49.9553 8.25711L65.0392 89.1512" stroke="#140553" stroke-miterlimit="10"/>
<path d="M38.7044 66.6118C35.3674 59.8048 39.6062 51.4652 45.5812 46.777C51.5561 42.1114 58.9965 39.7673 65.3999 35.7327C71.8032 31.6981 77.5077 24.801 76.3803 17.2954C75.5687 11.8183 68.8497 8.79804 63.6864 10.8266C58.5232 12.8551 55.6596 18.6703 55.4342 24.215C55.2312 29.7597 57.1478 35.1467 59.0418 40.3533C47.8585 41.7057 36.4271 34.4029 34.2851 23.336C33.4509 19.031 35.0743 13.1933 40.3728 14.2301C46.8889 15.5148 50.9473 22.3668 53.45 27.934C54.8028 30.9543 55.2539 34.493 56.6518 37.4232C58.5232 41.3 62.1532 41.0069 65.5803 43.3961C68.1957 45.2443 70.4956 47.5434 72.2994 50.203C75.7941 55.3871 77.3498 61.8334 76.6058 68.0318" stroke="#140553" stroke-miterlimit="10"/>
</svg>
