<svg width="160" height="177" viewBox="0 0 160 177" fill="none" xmlns="http://www.w3.org/2000/svg">
<path d="M157.69 39.6711L27.052 16.3145C25.9488 16.1172 24.8945 16.8514 24.6972 17.9542L0.971628 150.568C0.774323 151.671 1.50869 152.725 2.61189 152.922L133.25 176.279C134.353 176.476 135.408 175.742 135.605 174.639L159.331 42.0251C159.528 40.9223 158.794 39.8683 157.69 39.6711Z" fill="#96BDF4"/>
<path d="M16.9286 42.8552L154.082 67.3782" stroke="#140553" stroke-miterlimit="10"/>
<path d="M76.1819 20.0228L51.1549 160.015" stroke="#140553" stroke-miterlimit="10"/>
<path d="M45.9014 61.2249C77.6474 65.2369 76.0241 33.4112 68.9895 12.8102C67.9298 9.69971 66.6671 6.52163 64.3447 4.06483C62.0224 1.60803 58.3473 0.0979016 55.326 1.15726C50.9744 2.68994 50.1627 8.30227 50.7715 12.9229C52.0341 22.6374 56.8367 32.149 63.984 39.4067C73.2959 48.8508 75.3026 45.3121 84.7723 40.0604C92.0775 36.0033 97.6917 29.2414 99.6307 21.0821C100.736 16.4841 99.4503 9.90256 94.5351 9.00098C92.1226 8.57273 89.8679 9.8124 87.9739 11.1873C76.6328 19.4142 63.8939 47.9717 79.2709 57.5961C84.2537 60.7065 90.9051 60.9094 96.0458 58.1145" stroke="#140553" stroke-miterlimit="10"/>
</svg>
