<svg width="937" height="881" viewBox="0 0 937 881" fill="none" xmlns="http://www.w3.org/2000/svg">
<path d="M575.187 647.288L793.374 518.746L577.622 397.01" fill="#FFEECA"/>
<path d="M578.569 400.729L575.187 647.288L351.138 518.746L577.622 397.01" fill="#FFEECA"/>
<path d="M256.171 410.173L351.138 518.746L577.622 397.01L473.884 281.631L256.171 410.173Z" fill="#FBB34A"/>
<path d="M885.929 411.638L793.374 518.746L577.622 397.01L694.505 291.841L885.929 411.638Z" fill="#FBB34A"/>
<path d="M936.93 21.0744V220.256C936.93 225.237 876.797 253.208 869.402 257.874C847.058 271.961 825.886 287.716 806.563 305.77C766.971 342.78 782.01 398.836 747.355 436.454C725.778 459.873 690.357 464.245 674.416 493.186C655.589 527.378 646.3 575.027 636.988 612.983C628.916 645.823 592.638 682.112 554.151 660.857C535.955 650.805 524.344 616.747 512.416 599.167C482.091 554.426 446.083 513.517 405.612 477.679C377.202 452.525 346.471 429.016 313.688 409.835C281.378 390.947 244.063 388.783 208.236 379.204C128.758 357.972 59.9221 299.955 25.5606 225.237C-6.74918 155.049 -8.03432 71.3374 21.4345 0H915.871C927.528 0 936.952 9.44404 936.952 21.0744H936.93Z" fill="#466BFF"/>
<path d="M108.195 348.392C111.803 320.759 135.95 297.183 163.683 294.23C191.393 291.277 219.983 309.241 229.34 335.5C238.697 361.758 227.897 393.742 204.561 408.956C194.076 415.785 178.203 418.468 170.402 408.663C162.781 399.084 168.395 384.726 176.242 375.327C197.526 349.948 234.616 339.084 266.226 349.024C297.837 358.941 322.075 389.054 325.006 422.029C326.224 435.643 323.699 450.338 314.567 460.526C305.436 470.714 288.593 474.546 277.658 466.341C272.9 462.78 269.699 457.371 268.323 451.601C263.701 432.036 280.702 412.652 300.069 407.198C319.437 401.743 340.023 406.432 359.571 411.097" stroke="#F3C5F3" stroke-miterlimit="10"/>
<path d="M751.369 357.589C751.685 346.567 753.33 335.252 758.832 325.695C764.333 316.139 774.367 308.61 785.392 308.565C796.418 308.52 807.443 317.649 807.24 328.67C807.037 339.692 793.036 348.528 783.859 342.397C774.479 336.131 776.396 321.458 782.438 311.924C791.638 297.453 807.984 287.761 825.097 286.679" stroke="#F3C5F3" stroke-miterlimit="10"/>
<path d="M769.09 418.22C775.404 434.38 757.885 456.289 729.972 467.175C702.059 478.062 674.326 473.779 668.035 457.641C661.722 441.48 679.241 419.572 707.154 408.686C735.067 397.799 762.8 402.081 769.09 418.22Z" fill="#F3C5F3"/>
<path d="M730.806 469.272C701.788 480.586 672.702 475.74 665.938 458.453C659.174 441.165 677.324 417.904 706.342 406.589C735.36 395.275 764.446 400.121 771.21 417.408C777.951 434.696 759.823 457.957 730.828 469.272H730.806ZM707.988 410.782C681.293 421.195 664.315 441.841 670.154 456.807C675.994 471.773 702.464 475.47 729.182 465.057C755.878 454.643 772.856 433.997 767.016 419.031C761.176 404.065 734.706 400.368 707.988 410.782Z" fill="#EAF1FF"/>
<path d="M414.183 225.753C422.012 210.279 406.695 186.781 379.971 173.269C353.247 159.757 325.236 161.346 317.407 176.82C309.578 192.294 324.895 215.792 351.619 229.304C378.343 242.816 406.354 241.226 414.183 225.753Z" fill="#FBB34A"/>
<path d="M350.642 231.345C322.842 217.28 307.059 192.397 315.424 175.83C323.811 159.286 353.235 157.235 381.013 171.3C408.813 185.365 424.596 210.248 416.231 226.815C407.866 243.381 378.42 245.41 350.642 231.345ZM378.984 175.334C353.416 162.397 326.697 163.546 319.437 177.881C312.177 192.217 327.081 214.395 352.671 227.333C378.24 240.271 404.958 239.121 412.218 224.786C419.478 210.451 404.574 188.272 378.984 175.334Z" fill="#EAF1FF"/>
<path d="M556.495 246.469L580.711 226.612L593.292 255.282L624.474 258.37L613.088 287.536L632.929 311.766L604.25 324.343L601.161 355.492L571.985 344.11L547.77 363.967L535.189 335.297L504.029 332.209L515.415 303.043L495.551 278.813L524.231 266.236L527.32 235.087L556.495 246.469Z" fill="#ED3059"/>
<path d="M485.948 416.738L471.721 389.406L444.38 403.628L458.607 430.961L485.948 416.738Z" stroke="#140553" stroke-miterlimit="10"/>
<path d="M251.715 261.155L244.763 247.799L231.382 254.759L238.334 268.115L251.715 261.155Z" fill="#F3C5F3"/>
<path d="M783.1 144.332L776.137 130.956L762.777 137.906L769.739 151.282L783.1 144.332Z" fill="#ED3059"/>
<path d="M693.154 561.465L686.192 548.088L672.831 555.038L679.794 568.414L693.154 561.465Z" fill="#ED3059"/>
<path d="M438.736 504.063L431.783 490.707L418.423 497.657L425.375 511.013L438.736 504.063Z" fill="#FBB34A"/>
<path d="M681.373 141.33L650.979 117.616L627.257 148.001L657.652 171.714L681.373 141.33Z" stroke="#140553" stroke-miterlimit="10"/>
<path d="M544.591 189.016C548.812 189.016 552.234 185.595 552.234 181.375C552.234 177.155 548.812 173.734 544.591 173.734C540.37 173.734 536.948 177.155 536.948 181.375C536.948 185.595 540.37 189.016 544.591 189.016Z" stroke="#EAF1FF" stroke-miterlimit="10"/>
<path d="M683.683 378.1C687.904 378.1 691.326 374.679 691.326 370.459C691.326 366.239 687.904 362.818 683.683 362.818C679.461 362.818 676.039 366.239 676.039 370.459C676.039 374.679 679.461 378.1 683.683 378.1Z" stroke="#EAF1FF" stroke-miterlimit="10"/>
<path d="M203.862 207.093C208.083 207.093 211.505 203.672 211.505 199.452C211.505 195.232 208.083 191.811 203.862 191.811C199.64 191.811 196.218 195.232 196.218 199.452C196.218 203.672 199.64 207.093 203.862 207.093Z" stroke="#EAF1FF" stroke-miterlimit="10"/>
<path d="M575.187 647.288L574.894 665.185V665.207L574.849 668.137L573.97 720.406L573.924 723.359L573.045 775.606L573 778.558L572.121 830.827L572.076 833.78L571.286 881L537.827 861.796L535.753 860.602L498.73 839.37L496.611 838.153L459.612 816.92L457.515 815.726L420.493 794.471L418.418 793.276H418.396L381.374 772.044L379.299 770.85L347.238 752.457L347.35 745.448L347.396 742.518L347.937 710.624L348.275 690.249L348.32 687.296L349.199 635.049L349.244 632.074L350.124 579.828L350.169 576.875L351.048 524.629L351.093 521.676L351.138 518.746L353.213 519.94L355.309 521.135L392.332 542.367L394.406 543.562L431.428 564.816L433.525 566.011H433.547L470.547 587.243L472.644 588.46L509.666 609.692L511.74 610.887L548.762 632.142L550.859 633.336L575.187 647.288Z" fill="#5C96D6"/>
<path d="M438.508 569.189L477.672 591.052L467.3 823.547L428.159 799.362L438.508 569.189Z" fill="#F3C5F3"/>
<g style="mix-blend-mode:multiply" opacity="0.43">
<path d="M575.187 647.288L505.675 764.494C496.904 779.279 478.235 784.847 462.791 777.273L347.937 710.624L351.138 518.746L575.187 647.288Z" fill="#130452"/>
</g>
<path d="M793.374 518.746V748.558L606.663 859.903L593.585 867.702L571.287 881L572.076 833.78L572.121 830.827L573 778.558L573.045 775.606L573.925 723.359L573.97 720.406L574.849 668.137L574.894 665.207V665.185L575.187 647.288L652.207 601.916L652.23 601.894L664.834 594.478L664.856 594.456L793.374 518.746Z" fill="#0771BA"/>
<path d="M355.31 521.135L351.048 524.629L351.093 521.676L353.213 519.94L355.31 521.135Z" fill="#F3C5F3"/>
<path d="M394.406 543.562L350.124 579.828L350.169 576.875L392.332 542.367L394.406 543.562Z" fill="#F3C5F3"/>
<path d="M433.525 566.011L349.199 635.049L349.244 632.074L431.428 564.816L433.525 566.011Z" fill="#F3C5F3"/>
<path d="M472.644 588.46L348.275 690.249L348.32 687.296L470.547 587.243L472.644 588.46Z" fill="#F3C5F3"/>
<path d="M511.74 610.887L347.35 745.448L347.396 742.518L509.666 609.692L511.74 610.887Z" fill="#F3C5F3"/>
<path d="M550.859 633.336L381.374 772.044L379.299 770.85L548.762 632.142L550.859 633.336Z" fill="#F3C5F3"/>
<path d="M664.834 594.478L574.849 668.137L420.493 794.471L418.418 793.276L574.894 665.207V665.185L652.207 601.916L652.23 601.894L664.834 594.478Z" fill="#F3C5F3"/>
<path d="M764.829 567.093L573.924 723.359L459.611 816.92L457.515 815.726L573.97 720.406L763.409 565.335L764.829 567.093Z" fill="#F3C5F3"/>
<path d="M791.525 599.685L573 778.558L498.731 839.37L496.611 838.152L573.045 775.605L790.104 597.927L791.525 599.685Z" fill="#F3C5F3"/>
<path d="M793.374 649.723V652.63L572.076 833.78L537.827 861.796L535.753 860.602L572.121 830.827L793.374 649.723Z" fill="#F3C5F3"/>
<path d="M793.374 704.155V707.086L606.663 859.903L593.585 867.702L793.374 704.155Z" fill="#F3C5F3"/>
<path d="M669.929 592.202L707.921 569.189L701.021 805.132L667.629 824.696L669.929 592.202Z" fill="#F3C5F3"/>
<g style="mix-blend-mode:multiply" opacity="0.43">
<path d="M793.374 518.746V707.829L674.799 777.566C662.601 784.734 646.909 780.339 640.19 767.897L575.187 647.288L793.374 518.746Z" fill="#130452"/>
</g>
<path d="M351.138 518.746L256.171 624.884L479.723 753.427L575.187 647.288L351.138 518.746Z" fill="#FBB34A"/>
<path d="M575.187 647.288L666.75 754.892L884.463 623.419L793.374 518.746L575.187 647.288Z" fill="#FBB34A"/>
<path d="M549.225 286.522C549.655 284.229 550.644 282.451 552.192 281.19C553.74 279.929 555.575 279.298 557.696 279.298C559.531 279.298 560.993 279.785 562.082 280.76C563.2 281.706 563.759 283.068 563.759 284.845C563.759 285.418 563.702 285.977 563.587 286.522C563.186 288.815 562.211 290.593 560.663 291.854C559.144 293.115 557.323 293.746 555.202 293.746C553.339 293.746 551.848 293.259 550.73 292.284C549.641 291.309 549.096 289.933 549.096 288.156C549.096 287.611 549.139 287.067 549.225 286.522ZM578.508 279.728L556.578 310H549.483L571.413 279.728H578.508ZM556.922 283.641C555.546 283.641 554.686 284.601 554.342 286.522C554.285 287.038 554.256 287.368 554.256 287.511C554.256 288.772 554.801 289.403 555.89 289.403C556.549 289.403 557.108 289.174 557.567 288.715C558.026 288.228 558.341 287.497 558.513 286.522C558.57 286.063 558.599 285.748 558.599 285.576C558.599 284.286 558.04 283.641 556.922 283.641ZM564.447 303.206C564.848 300.913 565.823 299.135 567.371 297.874C568.919 296.613 570.754 295.982 572.875 295.982C574.71 295.982 576.172 296.455 577.261 297.401C578.35 298.347 578.895 299.709 578.895 301.486C578.895 302.088 578.838 302.661 578.723 303.206C578.322 305.499 577.347 307.277 575.799 308.538C574.28 309.799 572.459 310.43 570.338 310.43C568.503 310.43 567.027 309.957 565.909 309.011C564.82 308.036 564.275 306.66 564.275 304.883C564.275 304.31 564.332 303.751 564.447 303.206ZM572.101 300.325C571.442 300.325 570.883 300.569 570.424 301.056C569.965 301.515 569.65 302.231 569.478 303.206C569.421 303.722 569.392 304.052 569.392 304.195C569.392 305.456 569.951 306.087 571.069 306.087C571.728 306.087 572.273 305.843 572.703 305.356C573.162 304.869 573.477 304.152 573.649 303.206C573.706 302.747 573.735 302.432 573.735 302.26C573.735 300.97 573.19 300.325 572.101 300.325Z" fill="#EFEFEF"/>
<path d="M841.606 210.9L842.222 207.402H848.316L845.566 223H841.65L843.784 210.9H841.606ZM849.569 214.992C849.995 212.557 850.816 210.629 852.033 209.206C853.265 207.769 854.967 207.05 857.137 207.05C858.883 207.05 860.159 207.527 860.965 208.48C861.787 209.419 862.197 210.731 862.197 212.418C862.197 213.107 862.109 213.965 861.933 214.992C861.508 217.427 860.679 219.363 859.447 220.8C858.215 222.223 856.514 222.934 854.343 222.934C852.598 222.934 851.322 222.465 850.515 221.526C849.723 220.573 849.327 219.253 849.327 217.566C849.327 216.789 849.408 215.931 849.569 214.992ZM858.215 214.992C858.377 214.083 858.457 213.371 858.457 212.858C858.457 212.125 858.311 211.56 858.017 211.164C857.724 210.768 857.225 210.57 856.521 210.57C855.509 210.57 854.769 210.959 854.299 211.736C853.845 212.513 853.5 213.599 853.265 214.992C853.104 215.901 853.023 216.613 853.023 217.126C853.023 217.859 853.17 218.424 853.463 218.82C853.757 219.216 854.255 219.414 854.959 219.414C855.971 219.414 856.705 219.025 857.159 218.248C857.629 217.471 857.981 216.385 858.215 214.992ZM864.273 210.988C864.493 209.815 864.999 208.905 865.791 208.26C866.583 207.615 867.522 207.292 868.607 207.292C869.546 207.292 870.294 207.541 870.851 208.04C871.423 208.524 871.709 209.221 871.709 210.13C871.709 210.423 871.68 210.709 871.621 210.988C871.416 212.161 870.917 213.071 870.125 213.716C869.348 214.361 868.416 214.684 867.331 214.684C866.378 214.684 865.615 214.435 865.043 213.936C864.486 213.437 864.207 212.733 864.207 211.824C864.207 211.545 864.229 211.267 864.273 210.988ZM879.255 207.512L868.035 223H864.405L875.625 207.512H879.255ZM868.211 209.514C867.507 209.514 867.067 210.005 866.891 210.988C866.862 211.252 866.847 211.421 866.847 211.494C866.847 212.139 867.126 212.462 867.683 212.462C868.02 212.462 868.306 212.345 868.541 212.11C868.776 211.861 868.937 211.487 869.025 210.988C869.054 210.753 869.069 210.592 869.069 210.504C869.069 209.844 868.783 209.514 868.211 209.514ZM872.061 219.524C872.266 218.351 872.765 217.441 873.557 216.796C874.349 216.151 875.288 215.828 876.373 215.828C877.312 215.828 878.06 216.07 878.617 216.554C879.174 217.038 879.453 217.735 879.453 218.644C879.453 218.952 879.424 219.245 879.365 219.524C879.16 220.697 878.661 221.607 877.869 222.252C877.092 222.897 876.16 223.22 875.075 223.22C874.136 223.22 873.381 222.978 872.809 222.494C872.252 221.995 871.973 221.291 871.973 220.382C871.973 220.089 872.002 219.803 872.061 219.524ZM875.977 218.05C875.64 218.05 875.354 218.175 875.119 218.424C874.884 218.659 874.723 219.025 874.635 219.524C874.606 219.788 874.591 219.957 874.591 220.03C874.591 220.675 874.877 220.998 875.449 220.998C875.786 220.998 876.065 220.873 876.285 220.624C876.52 220.375 876.681 220.008 876.769 219.524C876.798 219.289 876.813 219.128 876.813 219.04C876.813 218.38 876.534 218.05 875.977 218.05ZM893.223 223.154C891.917 223.154 890.766 222.883 889.769 222.34C888.786 221.797 888.023 221.035 887.481 220.052C886.938 219.069 886.667 217.94 886.667 216.664C886.667 214.86 887.055 213.254 887.833 211.846C888.61 210.423 889.688 209.316 891.067 208.524C892.46 207.732 894.037 207.336 895.797 207.336C897.117 207.336 898.275 207.607 899.273 208.15C900.27 208.678 901.04 209.433 901.583 210.416C902.125 211.384 902.397 212.499 902.397 213.76C902.397 215.564 902.008 217.185 901.231 218.622C900.453 220.045 899.368 221.159 897.975 221.966C896.581 222.758 894.997 223.154 893.223 223.154ZM893.795 219.678C894.763 219.678 895.613 219.429 896.347 218.93C897.08 218.431 897.645 217.764 898.041 216.928C898.451 216.077 898.657 215.161 898.657 214.178C898.657 213.122 898.363 212.293 897.777 211.692C897.19 211.091 896.369 210.79 895.313 210.79C894.345 210.79 893.487 211.039 892.739 211.538C892.005 212.037 891.433 212.704 891.023 213.54C890.627 214.361 890.429 215.271 890.429 216.268C890.429 217.324 890.722 218.16 891.309 218.776C891.895 219.377 892.724 219.678 893.795 219.678ZM915.952 207.556L915.424 210.526H909.132L908.56 213.848H913.268L912.74 216.708H908.032L906.932 223H903.17L905.898 207.556H915.952ZM927.983 207.556L927.455 210.526H921.163L920.591 213.848H925.299L924.771 216.708H920.063L918.963 223H915.201L917.929 207.556H927.983Z" fill="#E7E7E7"/>
<path d="M414.606 434.9L415.222 431.402H421.316L418.566 447H414.65L416.784 434.9H414.606ZM434.713 434.218H427.849L427.321 437.254C427.673 436.931 428.128 436.667 428.685 436.462C429.243 436.257 429.829 436.154 430.445 436.154C431.824 436.154 432.836 436.528 433.481 437.276C434.141 438.024 434.471 438.992 434.471 440.18C434.471 440.532 434.435 440.943 434.361 441.412C434.053 443.128 433.327 444.492 432.183 445.504C431.039 446.501 429.587 447 427.827 447C426.214 447 424.975 446.633 424.109 445.9C423.244 445.152 422.811 444.155 422.811 442.908C422.811 442.776 422.826 442.549 422.855 442.226H426.507C426.522 442.681 426.676 443.062 426.969 443.37C427.263 443.663 427.695 443.81 428.267 443.81C428.957 443.81 429.507 443.59 429.917 443.15C430.328 442.71 430.607 442.123 430.753 441.39C430.783 441.243 430.797 441.045 430.797 440.796C430.797 439.711 430.218 439.168 429.059 439.168C428.561 439.168 428.128 439.293 427.761 439.542C427.409 439.777 427.145 440.092 426.969 440.488H423.339L425.011 430.918H435.285L434.713 434.218ZM437.23 434.988C437.45 433.815 437.956 432.905 438.748 432.26C439.54 431.615 440.479 431.292 441.564 431.292C442.503 431.292 443.251 431.541 443.808 432.04C444.38 432.524 444.666 433.221 444.666 434.13C444.666 434.423 444.637 434.709 444.578 434.988C444.373 436.161 443.874 437.071 443.082 437.716C442.305 438.361 441.373 438.684 440.288 438.684C439.335 438.684 438.572 438.435 438 437.936C437.443 437.437 437.164 436.733 437.164 435.824C437.164 435.545 437.186 435.267 437.23 434.988ZM452.212 431.512L440.992 447H437.362L448.582 431.512H452.212ZM441.168 433.514C440.464 433.514 440.024 434.005 439.848 434.988C439.819 435.252 439.804 435.421 439.804 435.494C439.804 436.139 440.083 436.462 440.64 436.462C440.977 436.462 441.263 436.345 441.498 436.11C441.733 435.861 441.894 435.487 441.982 434.988C442.011 434.753 442.026 434.592 442.026 434.504C442.026 433.844 441.74 433.514 441.168 433.514ZM445.018 443.524C445.223 442.351 445.722 441.441 446.514 440.796C447.306 440.151 448.245 439.828 449.33 439.828C450.269 439.828 451.017 440.07 451.574 440.554C452.131 441.038 452.41 441.735 452.41 442.644C452.41 442.952 452.381 443.245 452.322 443.524C452.117 444.697 451.618 445.607 450.826 446.252C450.049 446.897 449.117 447.22 448.032 447.22C447.093 447.22 446.338 446.978 445.766 446.494C445.209 445.995 444.93 445.291 444.93 444.382C444.93 444.089 444.959 443.803 445.018 443.524ZM448.934 442.05C448.597 442.05 448.311 442.175 448.076 442.424C447.841 442.659 447.68 443.025 447.592 443.524C447.563 443.788 447.548 443.957 447.548 444.03C447.548 444.675 447.834 444.998 448.406 444.998C448.743 444.998 449.022 444.873 449.242 444.624C449.477 444.375 449.638 444.008 449.726 443.524C449.755 443.289 449.77 443.128 449.77 443.04C449.77 442.38 449.491 442.05 448.934 442.05ZM466.18 447.154C464.875 447.154 463.723 446.883 462.726 446.34C461.743 445.797 460.981 445.035 460.438 444.052C459.895 443.069 459.624 441.94 459.624 440.664C459.624 438.86 460.013 437.254 460.79 435.846C461.567 434.423 462.645 433.316 464.024 432.524C465.417 431.732 466.994 431.336 468.754 431.336C470.074 431.336 471.233 431.607 472.23 432.15C473.227 432.678 473.997 433.433 474.54 434.416C475.083 435.384 475.354 436.499 475.354 437.76C475.354 439.564 474.965 441.185 474.188 442.622C473.411 444.045 472.325 445.159 470.932 445.966C469.539 446.758 467.955 447.154 466.18 447.154ZM466.752 443.678C467.72 443.678 468.571 443.429 469.304 442.93C470.037 442.431 470.602 441.764 470.998 440.928C471.409 440.077 471.614 439.161 471.614 438.178C471.614 437.122 471.321 436.293 470.734 435.692C470.147 435.091 469.326 434.79 468.27 434.79C467.302 434.79 466.444 435.039 465.696 435.538C464.963 436.037 464.391 436.704 463.98 437.54C463.584 438.361 463.386 439.271 463.386 440.268C463.386 441.324 463.679 442.16 464.266 442.776C464.853 443.377 465.681 443.678 466.752 443.678ZM488.909 431.556L488.381 434.526H482.089L481.517 437.848H486.225L485.697 440.708H480.989L479.889 447H476.127L478.855 431.556H488.909ZM500.94 431.556L500.412 434.526H494.12L493.548 437.848H498.256L497.728 440.708H493.02L491.92 447H488.158L490.886 431.556H500.94Z" fill="#E7E7E7"/>
<path d="M190.442 220.218H183.578L183.05 223.254C183.402 222.931 183.857 222.667 184.414 222.462C184.971 222.257 185.558 222.154 186.174 222.154C187.553 222.154 188.565 222.528 189.21 223.276C189.87 224.024 190.2 224.992 190.2 226.18C190.2 226.532 190.163 226.943 190.09 227.412C189.782 229.128 189.056 230.492 187.912 231.504C186.768 232.501 185.316 233 183.556 233C181.943 233 180.703 232.633 179.838 231.9C178.973 231.152 178.54 230.155 178.54 228.908C178.54 228.776 178.555 228.549 178.584 228.226H182.236C182.251 228.681 182.405 229.062 182.698 229.37C182.991 229.663 183.424 229.81 183.996 229.81C184.685 229.81 185.235 229.59 185.646 229.15C186.057 228.71 186.335 228.123 186.482 227.39C186.511 227.243 186.526 227.045 186.526 226.796C186.526 225.711 185.947 225.168 184.788 225.168C184.289 225.168 183.857 225.293 183.49 225.542C183.138 225.777 182.874 226.092 182.698 226.488H179.068L180.74 216.918H191.014L190.442 220.218ZM192.959 220.988C193.179 219.815 193.685 218.905 194.477 218.26C195.269 217.615 196.207 217.292 197.293 217.292C198.231 217.292 198.979 217.541 199.537 218.04C200.109 218.524 200.395 219.221 200.395 220.13C200.395 220.423 200.365 220.709 200.307 220.988C200.101 222.161 199.603 223.071 198.811 223.716C198.033 224.361 197.102 224.684 196.017 224.684C195.063 224.684 194.301 224.435 193.729 223.936C193.171 223.437 192.893 222.733 192.893 221.824C192.893 221.545 192.915 221.267 192.959 220.988ZM207.941 217.512L196.721 233H193.091L204.311 217.512H207.941ZM196.897 219.514C196.193 219.514 195.753 220.005 195.577 220.988C195.547 221.252 195.533 221.421 195.533 221.494C195.533 222.139 195.811 222.462 196.369 222.462C196.706 222.462 196.992 222.345 197.227 222.11C197.461 221.861 197.623 221.487 197.711 220.988C197.74 220.753 197.755 220.592 197.755 220.504C197.755 219.844 197.469 219.514 196.897 219.514ZM200.747 229.524C200.952 228.351 201.451 227.441 202.243 226.796C203.035 226.151 203.973 225.828 205.059 225.828C205.997 225.828 206.745 226.07 207.303 226.554C207.86 227.038 208.139 227.735 208.139 228.644C208.139 228.952 208.109 229.245 208.051 229.524C207.845 230.697 207.347 231.607 206.555 232.252C205.777 232.897 204.846 233.22 203.761 233.22C202.822 233.22 202.067 232.978 201.495 232.494C200.937 231.995 200.659 231.291 200.659 230.382C200.659 230.089 200.688 229.803 200.747 229.524ZM204.663 228.05C204.325 228.05 204.039 228.175 203.805 228.424C203.57 228.659 203.409 229.025 203.321 229.524C203.291 229.788 203.277 229.957 203.277 230.03C203.277 230.675 203.563 230.998 204.135 230.998C204.472 230.998 204.751 230.873 204.971 230.624C205.205 230.375 205.367 230.008 205.455 229.524C205.484 229.289 205.499 229.128 205.499 229.04C205.499 228.38 205.22 228.05 204.663 228.05ZM221.908 233.154C220.603 233.154 219.452 232.883 218.454 232.34C217.472 231.797 216.709 231.035 216.166 230.052C215.624 229.069 215.352 227.94 215.352 226.664C215.352 224.86 215.741 223.254 216.518 221.846C217.296 220.423 218.374 219.316 219.752 218.524C221.146 217.732 222.722 217.336 224.482 217.336C225.802 217.336 226.961 217.607 227.958 218.15C228.956 218.678 229.726 219.433 230.268 220.416C230.811 221.384 231.082 222.499 231.082 223.76C231.082 225.564 230.694 227.185 229.916 228.622C229.139 230.045 228.054 231.159 226.66 231.966C225.267 232.758 223.683 233.154 221.908 233.154ZM222.48 229.678C223.448 229.678 224.299 229.429 225.032 228.93C225.766 228.431 226.33 227.764 226.726 226.928C227.137 226.077 227.342 225.161 227.342 224.178C227.342 223.122 227.049 222.293 226.462 221.692C225.876 221.091 225.054 220.79 223.998 220.79C223.03 220.79 222.172 221.039 221.424 221.538C220.691 222.037 220.119 222.704 219.708 223.54C219.312 224.361 219.114 225.271 219.114 226.268C219.114 227.324 219.408 228.16 219.994 228.776C220.581 229.377 221.41 229.678 222.48 229.678ZM244.637 217.556L244.109 220.526H237.817L237.245 223.848H241.953L241.425 226.708H236.717L235.617 233H231.855L234.583 217.556H244.637ZM256.669 217.556L256.141 220.526H249.849L249.277 223.848H253.985L253.457 226.708H248.749L247.649 233H243.887L246.615 217.556H256.669Z" fill="#E7E7E7"/>
<path d="M609.935 85.864C610.451 82.8827 611.555 80.231 613.246 77.909C614.966 75.5583 617.102 73.738 619.653 72.448C622.204 71.1293 624.971 70.47 627.952 70.47C631.564 70.47 634.459 71.3443 636.638 73.093C638.845 74.8417 640.049 77.264 640.25 80.36H632.166C631.793 79.3567 631.134 78.597 630.188 78.081C629.271 77.5363 628.138 77.264 626.791 77.264C624.412 77.264 622.362 78.0523 620.642 79.629C618.951 81.177 617.876 83.2553 617.417 85.864C617.274 86.724 617.202 87.4693 617.202 88.1C617.202 90.2213 617.818 91.8553 619.051 93.002C620.284 94.1487 622.032 94.722 624.297 94.722C626.132 94.722 627.751 94.2633 629.156 93.346C630.561 92.4 631.693 91.067 632.553 89.347H623.265L624.168 83.972H640.164L638.96 90.809C638.1 92.6437 636.867 94.3493 635.262 95.926C633.685 97.5027 631.808 98.7783 629.629 99.753C627.45 100.728 625.1 101.215 622.577 101.215C619.968 101.215 617.675 100.713 615.697 99.71C613.748 98.678 612.243 97.2447 611.182 95.41C610.15 93.5753 609.634 91.4397 609.634 89.003C609.634 88.1717 609.734 87.1253 609.935 85.864ZM658.9 70.814C662.025 70.814 664.404 71.5307 666.038 72.964C667.672 74.3687 668.489 76.2033 668.489 78.468C668.489 79.1273 668.432 79.7437 668.317 80.317C667.973 82.3237 667.099 84.1153 665.694 85.692C664.289 87.2687 662.412 88.3867 660.061 89.046L664.92 101H656.621L652.364 89.605H650.601L648.58 101H641.227L646.559 70.814H658.9ZM660.792 80.618C660.849 80.1593 660.878 79.8583 660.878 79.715C660.878 78.7977 660.577 78.0953 659.975 77.608C659.402 77.092 658.542 76.834 657.395 76.834H652.837L651.504 84.402H656.062C657.409 84.402 658.47 84.0723 659.244 83.413C660.047 82.7537 660.563 81.822 660.792 80.618ZM680.931 76.619L679.856 82.897H689.703L688.714 88.444H678.867L677.663 95.195H688.8L687.768 101H669.278L674.61 70.814H693.1L692.068 76.619H680.931ZM712.278 95.668H701.012L698.26 101H690.563L706.817 70.814H715.331L720.921 101H713.138L712.278 95.668ZM711.418 90.078L709.655 78.898L703.893 90.078H711.418ZM751.292 70.814L750.303 76.619H742.262L737.962 101H730.609L734.909 76.619H726.911L727.943 70.814H751.292ZM776.244 70.814C779.025 70.814 781.418 71.3157 783.425 72.319C785.46 73.2937 787.008 74.684 788.069 76.49C789.158 78.2673 789.703 80.36 789.703 82.768C789.703 83.5993 789.603 84.6457 789.402 85.907C788.886 88.8597 787.768 91.4827 786.048 93.776C784.357 96.0693 782.192 97.8467 779.555 99.108C776.946 100.369 774.065 101 770.912 101H759.603L764.935 70.814H776.244ZM771.557 94.722C774.338 94.722 776.645 93.948 778.48 92.4C780.315 90.852 781.461 88.6877 781.92 85.907C782.063 85.047 782.135 84.3303 782.135 83.757C782.135 81.6357 781.49 80.0017 780.2 78.855C778.91 77.6797 777.075 77.092 774.696 77.092H771.17L768.074 94.722H771.557ZM802.498 76.619L801.423 82.897H811.27L810.281 88.444H800.434L799.23 95.195H810.367L809.335 101H790.845L796.177 70.814H814.667L813.635 76.619H802.498ZM833.846 95.668H822.58L819.828 101H812.131L828.385 70.814H836.899L842.489 101H834.706L833.846 95.668ZM832.986 90.078L831.223 78.898L825.461 90.078H832.986ZM854.155 95.41H863.787L862.798 101H845.813L851.145 70.814H858.498L854.155 95.41ZM878.302 101.301C875.034 101.301 872.368 100.599 870.304 99.194C868.269 97.7607 867.251 95.7397 867.251 93.131C867.251 92.873 867.28 92.486 867.337 91.97H874.991C874.905 93.0593 875.163 93.9193 875.765 94.55C876.367 95.1807 877.284 95.496 878.517 95.496C879.635 95.496 880.509 95.2523 881.14 94.765C881.799 94.2777 882.129 93.5897 882.129 92.701C882.129 91.7837 881.713 91.0383 880.882 90.465C880.079 89.8917 878.818 89.2467 877.098 88.53C875.435 87.842 874.074 87.197 873.013 86.595C871.981 85.9643 871.078 85.1187 870.304 84.058C869.53 82.9973 869.143 81.6643 869.143 80.059C869.114 78.081 869.602 76.361 870.605 74.899C871.608 73.437 872.999 72.319 874.776 71.545C876.553 70.771 878.589 70.384 880.882 70.384C882.946 70.384 884.781 70.7137 886.386 71.373C887.991 72.0037 889.238 72.9353 890.127 74.168C891.016 75.372 891.46 76.8053 891.46 78.468C891.46 78.898 891.446 79.2133 891.417 79.414H883.591C883.62 79.2993 883.634 79.1273 883.634 78.898C883.634 78.0953 883.347 77.4503 882.774 76.963C882.229 76.447 881.47 76.189 880.495 76.189C879.463 76.189 878.617 76.447 877.958 76.963C877.327 77.4503 877.012 78.124 877.012 78.984C877.012 79.844 877.413 80.575 878.216 81.177C879.019 81.7503 880.266 82.424 881.957 83.198C883.648 83.972 885.024 84.6887 886.085 85.348C887.174 86.0073 888.106 86.896 888.88 88.014C889.654 89.1033 890.041 90.4507 890.041 92.056C890.041 93.8333 889.568 95.4243 888.622 96.829C887.676 98.2337 886.314 99.3373 884.537 100.14C882.76 100.914 880.681 101.301 878.302 101.301Z" fill="#E7E7E7"/>
<path d="M129.949 70.814L124.617 101H117.264L119.457 88.487H108.019L105.826 101H98.473L103.805 70.814H111.158L109.051 82.682H120.489L122.596 70.814H129.949ZM142.481 70.814L139.299 88.831C139.184 89.5763 139.127 90.0923 139.127 90.379C139.127 91.6977 139.5 92.7153 140.245 93.432C140.99 94.12 142.094 94.464 143.556 94.464C145.276 94.464 146.681 93.9767 147.77 93.002C148.859 92.0273 149.562 90.637 149.877 88.831L153.059 70.814H160.412L157.23 88.831C156.743 91.5543 155.768 93.862 154.306 95.754C152.873 97.6173 151.11 99.0077 149.017 99.925C146.953 100.842 144.703 101.301 142.266 101.301C139.113 101.301 136.561 100.484 134.612 98.85C132.691 97.216 131.731 94.851 131.731 91.755C131.731 90.8377 131.817 89.863 131.989 88.831L135.128 70.814H142.481ZM161.706 85.864C162.222 82.8827 163.325 80.231 165.017 77.909C166.737 75.5583 168.872 73.738 171.424 72.448C173.975 71.1293 176.741 70.47 179.723 70.47C183.335 70.47 186.23 71.3443 188.409 73.093C190.616 74.8417 191.82 77.264 192.021 80.36H183.937C183.564 79.3567 182.905 78.597 181.959 78.081C181.041 77.5363 179.909 77.264 178.562 77.264C176.182 77.264 174.133 78.0523 172.413 79.629C170.721 81.177 169.646 83.2553 169.188 85.864C169.044 86.724 168.973 87.4693 168.973 88.1C168.973 90.2213 169.589 91.8553 170.822 93.002C172.054 94.1487 173.803 94.722 176.068 94.722C177.902 94.722 179.522 94.2633 180.927 93.346C182.331 92.4 183.464 91.067 184.324 89.347H175.036L175.939 83.972H191.935L190.731 90.809C189.871 92.6437 188.638 94.3493 187.033 95.926C185.456 97.5027 183.578 98.7783 181.4 99.753C179.221 100.728 176.87 101.215 174.348 101.215C171.739 101.215 169.446 100.713 167.468 99.71C165.518 98.678 164.013 97.2447 162.953 95.41C161.921 93.5753 161.405 91.4397 161.405 89.003C161.405 88.1717 161.505 87.1253 161.706 85.864ZM204.65 76.619L203.575 82.897H213.422L212.433 88.444H202.586L201.382 95.195H212.519L211.487 101H192.997L198.329 70.814H216.819L215.787 76.619H204.65ZM242.854 70.814C245.635 70.814 248.029 71.3157 250.035 72.319C252.071 73.2937 253.619 74.684 254.679 76.49C255.769 78.2673 256.313 80.36 256.313 82.768C256.313 83.5993 256.213 84.6457 256.012 85.907C255.496 88.8597 254.378 91.4827 252.658 93.776C250.967 96.0693 248.803 97.8467 246.165 99.108C243.557 100.369 240.676 101 237.522 101H226.213L231.545 70.814H242.854ZM238.167 94.722C240.948 94.722 243.256 93.948 245.09 92.4C246.925 90.852 248.072 88.6877 248.53 85.907C248.674 85.047 248.745 84.3303 248.745 83.757C248.745 81.6357 248.1 80.0017 246.81 78.855C245.52 77.6797 243.686 77.092 241.306 77.092H237.78L234.684 94.722H238.167ZM270.14 70.814L264.808 101H257.455L262.787 70.814H270.14ZM282.134 101.301C278.866 101.301 276.2 100.599 274.136 99.194C272.101 97.7607 271.083 95.7397 271.083 93.131C271.083 92.873 271.112 92.486 271.169 91.97H278.823C278.737 93.0593 278.995 93.9193 279.597 94.55C280.199 95.1807 281.116 95.496 282.349 95.496C283.467 95.496 284.341 95.2523 284.972 94.765C285.631 94.2777 285.961 93.5897 285.961 92.701C285.961 91.7837 285.545 91.0383 284.714 90.465C283.911 89.8917 282.65 89.2467 280.93 88.53C279.267 87.842 277.906 87.197 276.845 86.595C275.813 85.9643 274.91 85.1187 274.136 84.058C273.362 82.9973 272.975 81.6643 272.975 80.059C272.946 78.081 273.434 76.361 274.437 74.899C275.44 73.437 276.831 72.319 278.608 71.545C280.385 70.771 282.421 70.384 284.714 70.384C286.778 70.384 288.613 70.7137 290.218 71.373C291.823 72.0037 293.07 72.9353 293.959 74.168C294.848 75.372 295.292 76.8053 295.292 78.468C295.292 78.898 295.278 79.2133 295.249 79.414H287.423C287.452 79.2993 287.466 79.1273 287.466 78.898C287.466 78.0953 287.179 77.4503 286.606 76.963C286.061 76.447 285.302 76.189 284.327 76.189C283.295 76.189 282.449 76.447 281.79 76.963C281.159 77.4503 280.844 78.124 280.844 78.984C280.844 79.844 281.245 80.575 282.048 81.177C282.851 81.7503 284.098 82.424 285.789 83.198C287.48 83.972 288.856 84.6887 289.917 85.348C291.006 86.0073 291.938 86.896 292.712 88.014C293.486 89.1033 293.873 90.4507 293.873 92.056C293.873 93.8333 293.4 95.4243 292.454 96.829C291.508 98.2337 290.146 99.3373 288.369 100.14C286.592 100.914 284.513 101.301 282.134 101.301ZM298.348 85.864C298.864 82.8827 299.968 80.231 301.659 77.909C303.379 75.5583 305.5 73.738 308.023 72.448C310.546 71.1293 313.269 70.47 316.193 70.47C319.776 70.47 322.672 71.416 324.879 73.308C327.115 75.2 328.376 77.78 328.663 81.048H320.579C320.206 79.8153 319.518 78.8837 318.515 78.253C317.54 77.5937 316.336 77.264 314.903 77.264C312.638 77.264 310.675 78.0523 309.012 79.629C307.349 81.177 306.289 83.2553 305.83 85.864C305.687 86.6667 305.615 87.369 305.615 87.971C305.615 89.9777 306.174 91.5687 307.292 92.744C308.41 93.9193 309.944 94.507 311.893 94.507C313.298 94.507 314.602 94.1773 315.806 93.518C317.039 92.8587 318.071 91.9127 318.902 90.68H326.986C325.553 93.948 323.388 96.528 320.493 98.42C317.598 100.283 314.358 101.215 310.775 101.215C308.195 101.215 305.945 100.713 304.024 99.71C302.103 98.7067 300.627 97.2877 299.595 95.453C298.563 93.6183 298.047 91.4827 298.047 89.046C298.047 87.9567 298.147 86.896 298.348 85.864ZM344.002 101.301C341.451 101.301 339.2 100.771 337.251 99.71C335.33 98.6493 333.84 97.1587 332.779 95.238C331.718 93.3173 331.188 91.11 331.188 88.616C331.188 85.09 331.948 81.951 333.467 79.199C334.986 76.4183 337.093 74.254 339.788 72.706C342.511 71.158 345.593 70.384 349.033 70.384C351.613 70.384 353.878 70.9143 355.827 71.975C357.776 73.007 359.281 74.4833 360.342 76.404C361.403 78.296 361.933 80.4747 361.933 82.94C361.933 86.466 361.173 89.6337 359.654 92.443C358.135 95.2237 356.013 97.4023 353.29 98.979C350.567 100.527 347.471 101.301 344.002 101.301ZM345.12 94.507C347.012 94.507 348.675 94.0197 350.108 93.045C351.541 92.0703 352.645 90.766 353.419 89.132C354.222 87.4693 354.623 85.6777 354.623 83.757C354.623 81.693 354.05 80.0733 352.903 78.898C351.756 77.7227 350.151 77.135 348.087 77.135C346.195 77.135 344.518 77.6223 343.056 78.597C341.623 79.5717 340.505 80.876 339.702 82.51C338.928 84.1153 338.541 85.8927 338.541 87.842C338.541 89.906 339.114 91.54 340.261 92.744C341.408 93.9193 343.027 94.507 345.12 94.507ZM376 70.814L372.818 88.831C372.703 89.5763 372.646 90.0923 372.646 90.379C372.646 91.6977 373.018 92.7153 373.764 93.432C374.509 94.12 375.613 94.464 377.075 94.464C378.795 94.464 380.199 93.9767 381.289 93.002C382.378 92.0273 383.08 90.637 383.396 88.831L386.578 70.814H393.931L390.749 88.831C390.261 91.5543 389.287 93.862 387.825 95.754C386.391 97.6173 384.628 99.0077 382.536 99.925C380.472 100.842 378.221 101.301 375.785 101.301C372.631 101.301 370.08 100.484 368.131 98.85C366.21 97.216 365.25 94.851 365.25 91.755C365.25 90.8377 365.336 89.863 365.508 88.831L368.647 70.814H376ZM420.766 101H413.413L404.426 82.381L401.115 101H393.762L399.094 70.814H406.447L415.434 89.519L418.745 70.814H426.098L420.766 101ZM453.143 70.814L452.154 76.619H444.113L439.813 101H432.46L436.76 76.619H428.762L429.794 70.814H453.143ZM463.498 101.301C460.23 101.301 457.564 100.599 455.5 99.194C453.465 97.7607 452.447 95.7397 452.447 93.131C452.447 92.873 452.476 92.486 452.533 91.97H460.187C460.101 93.0593 460.359 93.9193 460.961 94.55C461.563 95.1807 462.481 95.496 463.713 95.496C464.831 95.496 465.706 95.2523 466.336 94.765C466.996 94.2777 467.325 93.5897 467.325 92.701C467.325 91.7837 466.91 91.0383 466.078 90.465C465.276 89.8917 464.014 89.2467 462.294 88.53C460.632 87.842 459.27 87.197 458.209 86.595C457.177 85.9643 456.274 85.1187 455.5 84.058C454.726 82.9973 454.339 81.6643 454.339 80.059C454.311 78.081 454.798 76.361 455.801 74.899C456.805 73.437 458.195 72.319 459.972 71.545C461.75 70.771 463.785 70.384 466.078 70.384C468.142 70.384 469.977 70.7137 471.582 71.373C473.188 72.0037 474.435 72.9353 475.323 74.168C476.212 75.372 476.656 76.8053 476.656 78.468C476.656 78.898 476.642 79.2133 476.613 79.414H468.787C468.816 79.2993 468.83 79.1273 468.83 78.898C468.83 78.0953 468.544 77.4503 467.97 76.963C467.426 76.447 466.666 76.189 465.691 76.189C464.659 76.189 463.814 76.447 463.154 76.963C462.524 77.4503 462.208 78.124 462.208 78.984C462.208 79.844 462.61 80.575 463.412 81.177C464.215 81.7503 465.462 82.424 467.153 83.198C468.845 83.972 470.221 84.6887 471.281 85.348C472.371 86.0073 473.302 86.896 474.076 88.014C474.85 89.1033 475.237 90.4507 475.237 92.056C475.237 93.8333 474.764 95.4243 473.818 96.829C472.872 98.2337 471.511 99.3373 469.733 100.14C467.956 100.914 465.878 101.301 463.498 101.301Z" fill="#E7E7E7"/>
</svg>
